<svg width="170" height="33" viewBox="0 0 170 33" fill="none" xmlns="http://www.w3.org/2000/svg">
<path d="M14.8861 2.59241C15.5997 2.59241 16.1823 2.00985 16.1823 1.29621C16.1823 0.582565 15.5997 0 14.8861 0C14.1724 0 13.5898 0.582565 13.5898 1.29621C13.5898 2.00985 14.1724 2.59241 14.8861 2.59241Z" fill="url(#paint0_linear_1762_2920)"/>
<path d="M5.27277 6.56898C5.98641 6.56898 6.56898 5.98641 6.56898 5.27277C6.56898 4.55913 5.98641 3.97656 5.27277 3.97656C4.55913 3.97656 3.97656 4.55913 3.97656 5.27277C3.97656 5.98641 4.55913 6.56898 5.27277 6.56898Z" fill="url(#paint1_linear_1762_2920)"/>
<path d="M1.29621 16.1744C2.00985 16.1744 2.59241 15.5919 2.59241 14.8782C2.59241 14.1646 2.00985 13.582 1.29621 13.582C0.582565 13.582 0 14.1646 0 14.8782C0 15.5919 0.582565 16.1744 1.29621 16.1744Z" fill="url(#paint2_linear_1762_2920)"/>
<path d="M5.27277 25.778C5.98641 25.778 6.56898 25.1954 6.56898 24.4818C6.56898 23.7681 5.98641 23.1855 5.27277 23.1855C4.55913 23.1855 3.97656 23.7681 3.97656 24.4818C3.97656 25.1954 4.55913 25.778 5.27277 25.778Z" fill="url(#paint3_linear_1762_2920)"/>
<path d="M24.4915 25.778C25.2052 25.778 25.7877 25.1954 25.7877 24.4818C25.7877 23.7681 25.2052 23.1855 24.4915 23.1855C23.7779 23.1855 23.1953 23.7681 23.1953 24.4818C23.1953 25.1954 23.7779 25.778 24.4915 25.778Z" fill="url(#paint4_linear_1762_2920)"/>
<path d="M28.472 16.1744C29.1856 16.1744 29.7682 15.5919 29.7682 14.8782C29.7682 14.1646 29.1856 13.582 28.472 13.582C27.7583 13.582 27.1758 14.1646 27.1758 14.8782C27.1758 15.5919 27.7583 16.1744 28.472 16.1744Z" fill="url(#paint5_linear_1762_2920)"/>
<path d="M24.4915 6.56898C25.2052 6.56898 25.7877 5.98641 25.7877 5.27277C25.7877 4.55913 25.2052 3.97656 24.4915 3.97656C23.7779 3.97656 23.1953 4.55913 23.1953 5.27277C23.1953 5.98641 23.7779 6.56898 24.4915 6.56898Z" fill="url(#paint6_linear_1762_2920)"/>
<path d="M14.899 2.43164H14.8699C14.8044 2.43164 14.7461 2.4899 14.7461 2.55544V11.6871C14.7461 11.7527 14.8044 11.8109 14.8699 11.8109H14.899C14.9646 11.8109 15.0228 11.7527 15.0228 11.6871V2.55544C15.0228 2.4899 14.9646 2.43164 14.899 2.43164Z" fill="url(#paint7_linear_1762_2920)"/>
<path d="M6.08742 6.07339L6.06557 6.09523C6.0146 6.14621 6.0146 6.21903 6.06557 6.27L12.5248 12.7292C12.5757 12.7802 12.6486 12.7802 12.6995 12.7292L12.7214 12.7073C12.7724 12.6564 12.7724 12.5836 12.7214 12.5326L6.26219 6.07339C6.21122 6.02241 6.1384 6.02241 6.08742 6.07339Z" fill="url(#paint8_linear_1762_2920)"/>
<path d="M2.42916 14.8699V14.899C2.42916 14.9646 2.48741 15.0228 2.55295 15.0228H11.6919C11.7575 15.0228 11.8157 14.9646 11.8157 14.899V14.8699C11.8157 14.8044 11.7575 14.7461 11.6919 14.7461H2.54567C2.48013 14.7461 2.42188 14.8044 2.42188 14.8699H2.42916Z" fill="url(#paint9_linear_1762_2920)"/>
<path d="M6.06557 23.6741L6.08742 23.696C6.1384 23.747 6.21122 23.747 6.26219 23.696L12.7214 17.2368C12.7724 17.1858 12.7724 17.113 12.7214 17.062L12.6995 17.0402C12.6486 16.9892 12.5757 16.9892 12.5248 17.0402L6.06557 23.4994C6.0146 23.5503 6.0146 23.6232 6.06557 23.6741Z" fill="url(#paint10_linear_1762_2920)"/>
<path d="M23.6722 23.696L23.694 23.6741C23.745 23.6232 23.745 23.5503 23.694 23.4994L17.2348 17.0402C17.1839 16.9892 17.1111 16.9892 17.0601 17.0402L17.0382 17.062C16.9873 17.113 16.9873 17.1858 17.0382 17.2368L23.4974 23.696C23.5484 23.747 23.6212 23.747 23.6722 23.696Z" fill="url(#paint11_linear_1762_2920)"/>
<path d="M27.3358 14.899V14.8699C27.3358 14.8044 27.2775 14.7461 27.212 14.7461H18.073C18.0075 14.7461 17.9492 14.8044 17.9492 14.8699V14.899C17.9492 14.9646 18.0075 15.0228 18.073 15.0228H27.212C27.2775 15.0228 27.3358 14.9646 27.3358 14.899Z" fill="url(#paint12_linear_1762_2920)"/>
<path d="M23.694 6.09523L23.6722 6.07339C23.6212 6.02241 23.5484 6.02241 23.4974 6.07339L17.0382 12.5326C16.9873 12.5836 16.9873 12.6564 17.0382 12.7073L17.0601 12.7292C17.1111 12.7802 17.1839 12.7802 17.2348 12.7292L23.694 6.27C23.745 6.21903 23.745 6.14621 23.694 6.09523Z" fill="url(#paint13_linear_1762_2920)"/>
<path d="M14.8851 25.7858C8.87011 25.7858 3.97656 20.8923 3.97656 14.8773C3.97656 8.8623 8.87011 3.96875 14.8851 3.96875C20.9001 3.96875 25.7936 8.8623 25.7936 14.8773C25.7936 20.8923 20.9001 25.7858 14.8851 25.7858ZM14.8851 4.71152C9.2779 4.71152 4.71205 9.27009 4.71205 14.8773C4.71205 20.4845 9.2779 25.043 14.8851 25.043C20.4923 25.043 25.0581 20.4845 25.0581 14.8773C25.0581 9.27009 20.4923 4.71152 14.8851 4.71152Z" fill="url(#paint14_linear_1762_2920)"/>
<path d="M14.8858 28.1887C7.54551 28.1887 1.57422 22.2174 1.57422 14.8844C1.57422 7.55137 7.54551 1.58008 14.8858 1.58008C22.2261 1.58008 28.1974 7.55137 28.1974 14.8844C28.1974 22.2174 22.2261 28.1887 14.8858 28.1887ZM14.8858 2.61413C8.11351 2.61413 2.60827 8.11937 2.60827 14.8844C2.60827 21.6494 8.11351 27.1547 14.8858 27.1547C21.6581 27.1547 27.1634 21.6494 27.1634 14.8844C27.1634 8.11937 21.6509 2.61413 14.8858 2.61413Z" fill="url(#paint15_linear_1762_2920)"/>
<path d="M14.8867 16.0645C15.5421 16.0645 16.0664 15.5329 16.0664 14.8848C16.0664 14.2367 15.5348 13.7051 14.8867 13.7051C14.2386 13.7051 13.707 14.2367 13.707 14.8848C13.707 15.5329 14.2386 16.0645 14.8867 16.0645Z" fill="#505050"/>
<path d="M19.8675 23.9521L15.8987 17.42C15.8478 17.3327 15.7385 17.289 15.6366 17.3254C15.5856 17.3399 15.5346 17.3545 15.4764 17.3691C15.338 17.4055 15.2579 17.5511 15.3235 17.6822L17.945 23.5078L20.8651 29.9889C20.9306 30.1418 20.8214 30.3093 20.6612 30.3093H9.11186C8.94437 30.3093 8.83514 30.1418 8.90796 29.9889L11.8281 23.5078L14.4496 17.6822C14.5079 17.5511 14.435 17.3982 14.2967 17.3691C14.2457 17.3545 14.1875 17.3399 14.1365 17.3254C14.0345 17.2962 13.9253 17.3327 13.8743 17.42L9.9056 23.9521L5.12857 31.8094C5.0339 31.9623 5.14314 32.1517 5.32519 32.1517H24.4552C24.6299 32.1517 24.7392 31.955 24.6518 31.8094L19.8747 23.9521H19.8675Z" fill="#505050"/>
<path d="M45.6795 24.4062C44.2129 24.4062 42.8635 24.0468 41.6315 23.3282C40.3995 22.6095 39.4242 21.6342 38.7055 20.4022C37.9869 19.1702 37.6275 17.8282 37.6275 16.3762C37.6275 14.9242 37.9869 13.5822 38.7055 12.3502C39.4242 11.1182 40.3995 10.1428 41.6315 9.42417C42.8635 8.7055 44.2129 8.34617 45.6795 8.34617C47.1315 8.34617 48.4662 8.7055 49.6835 9.42417C50.9155 10.1428 51.8909 11.1182 52.6095 12.3502C53.3282 13.5822 53.6875 14.9242 53.6875 16.3762C53.6875 17.8282 53.3282 19.1702 52.6095 20.4022C51.8909 21.6342 50.9155 22.6095 49.6835 23.3282C48.4662 24.0468 47.1315 24.4062 45.6795 24.4062ZM44.5575 17.8062C44.3375 17.5862 44.0882 17.4322 43.8095 17.3442C43.5455 17.2562 43.2815 17.2488 43.0175 17.3222C42.7535 17.3808 42.5262 17.5055 42.3355 17.6962C42.1009 17.9308 41.9395 18.2022 41.8515 18.5102C41.7635 18.8035 41.7562 19.0968 41.8295 19.3902C41.9029 19.6688 42.0569 19.9182 42.2915 20.1382L41.2795 21.1722C40.7662 20.6442 40.4142 20.0575 40.2235 19.4122C40.0475 18.7522 40.0329 18.0995 40.1795 17.4542C40.3409 16.8088 40.6635 16.2368 41.1475 15.7382C41.6169 15.2542 42.1742 14.9388 42.8195 14.7922C43.4649 14.6455 44.1175 14.6822 44.7775 14.9022C45.4522 15.1222 46.0682 15.4962 46.6255 16.0242L53.3355 22.6902L51.4215 24.6262L44.5575 17.8062ZM45.6795 21.4802C46.5889 21.4802 47.4249 21.2528 48.1875 20.7982C48.9502 20.3435 49.5515 19.7275 49.9915 18.9502C50.4315 18.1582 50.6515 17.3002 50.6515 16.3762C50.6515 15.4522 50.4315 14.6015 49.9915 13.8242C49.5515 13.0322 48.9502 12.4088 48.1875 11.9542C47.4249 11.4995 46.5889 11.2722 45.6795 11.2722C44.7555 11.2722 43.9122 11.4995 43.1495 11.9542C42.3869 12.4088 41.7782 13.0322 41.3235 13.8242C40.8835 14.6015 40.6635 15.4522 40.6635 16.3762C40.6635 17.3002 40.8835 18.1582 41.3235 18.9502C41.7782 19.7275 42.3869 20.3435 43.1495 20.7982C43.9122 21.2528 44.7555 21.4802 45.6795 21.4802ZM59.5526 24.4062C58.7753 24.4062 58.0859 24.2008 57.4846 23.7902C56.8979 23.3648 56.4359 22.7782 56.0986 22.0302C55.7759 21.2675 55.6146 20.3802 55.6146 19.3682V13.0762H58.4746V19.3682C58.4746 19.8375 58.5553 20.2482 58.7166 20.6002C58.8779 20.9375 59.1053 21.2015 59.3986 21.3922C59.7066 21.5828 60.0586 21.6782 60.4546 21.6782C60.9093 21.6782 61.3199 21.5682 61.6866 21.3482C62.0533 21.1135 62.3393 20.7982 62.5446 20.4022C62.7646 20.0062 62.8746 19.5735 62.8746 19.1042H63.9086C63.9086 20.0135 63.7253 20.8788 63.3586 21.7002C62.9919 22.5068 62.4713 23.1595 61.7966 23.6582C61.1366 24.1568 60.3886 24.4062 59.5526 24.4062ZM62.8746 13.0762H65.7346V24.0762H62.8746V13.0762ZM73.0584 24.4062C72.017 24.4062 71.0564 24.1495 70.1764 23.6362C69.311 23.1228 68.6217 22.4262 68.1084 21.5462C67.6097 20.6515 67.3604 19.6615 67.3604 18.5762C67.3604 17.4908 67.6097 16.5082 68.1084 15.6282C68.6217 14.7335 69.311 14.0295 70.1764 13.5162C71.0564 13.0028 72.017 12.7462 73.0584 12.7462C74.0117 12.7462 74.8477 12.9955 75.5664 13.4942C76.285 13.9928 76.835 14.6822 77.2164 15.5622C77.6124 16.4422 77.8104 17.4468 77.8104 18.5762C77.8104 19.7055 77.6124 20.7102 77.2164 21.5902C76.835 22.4702 76.285 23.1595 75.5664 23.6582C74.8477 24.1568 74.0117 24.4062 73.0584 24.4062ZM73.4984 21.8102C74.0997 21.8102 74.6497 21.6708 75.1484 21.3922C75.6617 21.0988 76.0577 20.7102 76.3364 20.2262C76.6297 19.7275 76.7764 19.1775 76.7764 18.5762C76.7764 17.9748 76.6297 17.4322 76.3364 16.9482C76.0577 16.4495 75.6617 16.0608 75.1484 15.7822C74.6497 15.4888 74.0997 15.3422 73.4984 15.3422C72.8824 15.3422 72.3177 15.4815 71.8044 15.7602C71.3057 16.0388 70.9097 16.4275 70.6164 16.9262C70.3377 17.4248 70.1984 17.9748 70.1984 18.5762C70.1984 19.1775 70.3377 19.7275 70.6164 20.2262C70.9097 20.7248 71.3057 21.1135 71.8044 21.3922C72.3177 21.6708 72.8824 21.8102 73.4984 21.8102ZM76.7764 13.0762H79.6364V24.0762H76.7764V13.0762ZM89.0482 17.7842C89.0482 17.3148 88.9676 16.9115 88.8062 16.5742C88.6449 16.2222 88.4102 15.9508 88.1022 15.7602C87.7942 15.5695 87.4422 15.4742 87.0462 15.4742C86.5916 15.4742 86.1736 15.5915 85.7922 15.8262C85.4256 16.0462 85.1396 16.3542 84.9342 16.7502C84.7289 17.1462 84.6262 17.5788 84.6262 18.0482H83.5922C83.5922 17.1388 83.7756 16.2808 84.1422 15.4742C84.5089 14.6528 85.0222 13.9928 85.6822 13.4942C86.3569 12.9955 87.1122 12.7462 87.9482 12.7462C88.7256 12.7462 89.4076 12.9588 89.9942 13.3842C90.5956 13.7948 91.0576 14.3815 91.3802 15.1442C91.7176 15.8922 91.8862 16.7722 91.8862 17.7842V24.0762H89.0482V17.7842ZM81.7662 13.0762H84.6262V24.0762H81.7662V13.0762ZM98.3572 24.4062C97.0958 24.4062 96.1572 24.0762 95.5412 23.4162C94.9252 22.7562 94.6172 21.7442 94.6172 20.3802V10.2162H97.4772V20.3802C97.4772 20.8348 97.5798 21.1868 97.7852 21.4362C98.0052 21.6855 98.3132 21.8102 98.7092 21.8102C98.9438 21.8102 99.1565 21.7882 99.3472 21.7442C99.5525 21.7002 99.7578 21.6195 99.9632 21.5022V24.0762C99.7578 24.1788 99.5012 24.2595 99.1932 24.3182C98.8852 24.3768 98.6065 24.4062 98.3572 24.4062ZM92.8132 13.0762H99.9632V15.8042H92.8132V13.0762ZM105.508 24.4062C104.73 24.4062 104.041 24.2008 103.44 23.7902C102.853 23.3648 102.391 22.7782 102.054 22.0302C101.731 21.2675 101.57 20.3802 101.57 19.3682V13.0762H104.43V19.3682C104.43 19.8375 104.51 20.2482 104.672 20.6002C104.833 20.9375 105.06 21.2015 105.354 21.3922C105.662 21.5828 106.014 21.6782 106.41 21.6782C106.864 21.6782 107.275 21.5682 107.642 21.3482C108.008 21.1135 108.294 20.7982 108.5 20.4022C108.72 20.0062 108.83 19.5735 108.83 19.1042H109.864C109.864 20.0135 109.68 20.8788 109.314 21.7002C108.947 22.5068 108.426 23.1595 107.752 23.6582C107.092 24.1568 106.344 24.4062 105.508 24.4062ZM108.83 13.0762H111.69V24.0762H108.83V13.0762ZM127.745 17.7842C127.745 17.0802 127.562 16.5228 127.195 16.1122C126.843 15.6868 126.374 15.4742 125.787 15.4742C125.347 15.4742 124.966 15.5915 124.643 15.8262C124.321 16.0462 124.079 16.3542 123.917 16.7502C123.756 17.1315 123.675 17.5642 123.675 18.0482H122.509C122.509 16.9922 122.671 16.0682 122.993 15.2762C123.316 14.4695 123.793 13.8462 124.423 13.4062C125.054 12.9662 125.802 12.7462 126.667 12.7462C127.445 12.7462 128.127 12.9588 128.713 13.3842C129.315 13.7948 129.777 14.3815 130.099 15.1442C130.437 15.8922 130.605 16.7722 130.605 17.7842V24.0762H127.745V17.7842ZM113.885 13.0762H116.745V24.0762H113.885V13.0762ZM120.815 17.7842C120.815 17.0655 120.647 16.5008 120.309 16.0902C119.987 15.6795 119.532 15.4742 118.945 15.4742C118.491 15.4742 118.095 15.5915 117.757 15.8262C117.435 16.0462 117.185 16.3542 117.009 16.7502C116.833 17.1462 116.745 17.5788 116.745 18.0482H115.711C115.755 17.0362 115.946 16.1342 116.283 15.3422C116.635 14.5355 117.134 13.9048 117.779 13.4502C118.425 12.9808 119.195 12.7462 120.089 12.7462C120.808 12.7462 121.439 12.9588 121.981 13.3842C122.524 13.7948 122.942 14.3815 123.235 15.1442C123.529 15.8922 123.675 16.7722 123.675 17.7842V24.0762H120.815V17.7842ZM132.947 8.67617H142.693V11.6022H134.289L135.961 9.53417V24.0762H132.947V8.67617ZM134.487 15.1222H142.385V17.8942H134.487V15.1222ZM148.941 24.4062C147.9 24.4062 146.939 24.1495 146.059 23.6362C145.194 23.1228 144.505 22.4262 143.991 21.5462C143.493 20.6515 143.243 19.6615 143.243 18.5762C143.243 17.4908 143.493 16.5082 143.991 15.6282C144.505 14.7335 145.194 14.0295 146.059 13.5162C146.939 13.0028 147.9 12.7462 148.941 12.7462C149.895 12.7462 150.731 12.9955 151.449 13.4942C152.168 13.9928 152.718 14.6822 153.099 15.5622C153.495 16.4422 153.693 17.4468 153.693 18.5762C153.693 19.7055 153.495 20.7102 153.099 21.5902C152.718 22.4702 152.168 23.1595 151.449 23.6582C150.731 24.1568 149.895 24.4062 148.941 24.4062ZM149.381 21.8102C149.983 21.8102 150.533 21.6708 151.031 21.3922C151.545 21.0988 151.941 20.7102 152.219 20.2262C152.513 19.7275 152.659 19.1775 152.659 18.5762C152.659 17.9748 152.513 17.4322 152.219 16.9482C151.941 16.4495 151.545 16.0608 151.031 15.7822C150.533 15.4888 149.983 15.3422 149.381 15.3422C148.765 15.3422 148.201 15.4815 147.687 15.7602C147.189 16.0388 146.793 16.4275 146.499 16.9262C146.221 17.4248 146.081 17.9748 146.081 18.5762C146.081 19.1775 146.221 19.7275 146.499 20.2262C146.793 20.7248 147.189 21.1135 147.687 21.3922C148.201 21.6708 148.765 21.8102 149.381 21.8102ZM152.659 13.0762H155.519V24.0762H152.659V13.0762ZM159.105 11.6462C158.621 11.6462 158.21 11.4848 157.873 11.1622C157.55 10.8248 157.389 10.4142 157.389 9.93017C157.389 9.46084 157.55 9.0575 157.873 8.72017C158.21 8.36817 158.621 8.19217 159.105 8.19217C159.574 8.19217 159.977 8.36817 160.315 8.72017C160.667 9.0575 160.843 9.46084 160.843 9.93017C160.843 10.4142 160.667 10.8248 160.315 11.1622C159.977 11.4848 159.574 11.6462 159.105 11.6462ZM157.697 13.0762H160.535V24.0762H157.697V13.0762ZM162.741 13.0762H165.601V24.0762H162.741V13.0762ZM164.567 18.4882C164.567 17.4175 164.758 16.4642 165.139 15.6282C165.535 14.7922 166.078 14.1395 166.767 13.6702C167.471 13.2008 168.241 12.9662 169.077 12.9662V16.0902C168.432 16.0902 167.845 16.1928 167.317 16.3982C166.789 16.6035 166.371 16.8895 166.063 17.2562C165.755 17.6228 165.601 18.0335 165.601 18.4882H164.567Z" fill="#505050"/>
<defs>
<linearGradient id="paint0_linear_1762_2920" x1="-2.91131" y1="17.2949" x2="16.6629" y2="-0.298561" gradientUnits="userSpaceOnUse">
<stop stop-color="#EF4F34"/>
<stop offset="0.5" stop-color="#EF6D57"/>
<stop offset="1" stop-color="#F2CC46"/>
</linearGradient>
<linearGradient id="paint1_linear_1762_2920" x1="-5.22797" y1="14.7176" x2="14.3462" y2="-2.87586" gradientUnits="userSpaceOnUse">
<stop stop-color="#EF4F34"/>
<stop offset="0.5" stop-color="#EF6D57"/>
<stop offset="1" stop-color="#F2CC46"/>
</linearGradient>
<linearGradient id="paint2_linear_1762_2920" x1="-2.22831" y1="18.0532" x2="17.3386" y2="0.459757" gradientUnits="userSpaceOnUse">
<stop stop-color="#EF4F34"/>
<stop offset="0.5" stop-color="#EF6D57"/>
<stop offset="1" stop-color="#F2CC46"/>
</linearGradient>
<linearGradient id="paint3_linear_1762_2920" x1="4.3261" y1="25.341" x2="23.893" y2="7.74757" gradientUnits="userSpaceOnUse">
<stop stop-color="#EF4F34"/>
<stop offset="0.5" stop-color="#EF6D57"/>
<stop offset="1" stop-color="#F2CC46"/>
</linearGradient>
<linearGradient id="paint4_linear_1762_2920" x1="12.913" y1="34.8951" x2="32.4872" y2="17.3016" gradientUnits="userSpaceOnUse">
<stop stop-color="#EF4F34"/>
<stop offset="0.5" stop-color="#EF6D57"/>
<stop offset="1" stop-color="#F2CC46"/>
</linearGradient>
<linearGradient id="paint5_linear_1762_2920" x1="9.91001" y1="31.5614" x2="29.4842" y2="13.968" gradientUnits="userSpaceOnUse">
<stop stop-color="#EF4F34"/>
<stop offset="0.5" stop-color="#EF6D57"/>
<stop offset="1" stop-color="#F2CC46"/>
</linearGradient>
<linearGradient id="paint6_linear_1762_2920" x1="3.35898" y1="24.2717" x2="22.9332" y2="6.67821" gradientUnits="userSpaceOnUse">
<stop stop-color="#EF4F34"/>
<stop offset="0.5" stop-color="#EF6D57"/>
<stop offset="1" stop-color="#F2CC46"/>
</linearGradient>
<linearGradient id="paint7_linear_1762_2920" x1="-0.0437423" y1="20.5421" x2="19.5668" y2="2.9123" gradientUnits="userSpaceOnUse">
<stop stop-color="#EF4F34"/>
<stop offset="0.5" stop-color="#EF6D57"/>
<stop offset="1" stop-color="#F2CC46"/>
</linearGradient>
<linearGradient id="paint8_linear_1762_2920" x1="-1.36213" y1="19.0646" x2="18.2485" y2="1.43471" gradientUnits="userSpaceOnUse">
<stop stop-color="#EF4F34"/>
<stop offset="0.5" stop-color="#EF6D57"/>
<stop offset="1" stop-color="#F2CC46"/>
</linearGradient>
<linearGradient id="paint9_linear_1762_2920" x1="0.353769" y1="20.9577" x2="19.9644" y2="3.33513" gradientUnits="userSpaceOnUse">
<stop stop-color="#EF4F34"/>
<stop offset="0.5" stop-color="#EF6D57"/>
<stop offset="1" stop-color="#F2CC46"/>
</linearGradient>
<linearGradient id="paint10_linear_1762_2920" x1="4.11398" y1="25.1087" x2="23.6882" y2="7.51525" gradientUnits="userSpaceOnUse">
<stop stop-color="#EF4F34"/>
<stop offset="0.5" stop-color="#EF6D57"/>
<stop offset="1" stop-color="#F2CC46"/>
</linearGradient>
<linearGradient id="paint11_linear_1762_2920" x1="8.99155" y1="30.5921" x2="28.6094" y2="12.9622" gradientUnits="userSpaceOnUse">
<stop stop-color="#EF4F34"/>
<stop offset="0.5" stop-color="#EF6D57"/>
<stop offset="1" stop-color="#F2CC46"/>
</linearGradient>
<linearGradient id="paint12_linear_1762_2920" x1="7.281" y1="28.6913" x2="26.8916" y2="11.0614" gradientUnits="userSpaceOnUse">
<stop stop-color="#EF4F34"/>
<stop offset="0.5" stop-color="#EF6D57"/>
<stop offset="1" stop-color="#F2CC46"/>
</linearGradient>
<linearGradient id="paint13_linear_1762_2920" x1="3.55913" y1="24.5043" x2="23.1333" y2="6.90354" gradientUnits="userSpaceOnUse">
<stop stop-color="#EF4F34"/>
<stop offset="0.5" stop-color="#EF6D57"/>
<stop offset="1" stop-color="#F2CC46"/>
</linearGradient>
<linearGradient id="paint14_linear_1762_2920" x1="3.8382" y1="24.8027" x2="23.4124" y2="7.20927" gradientUnits="userSpaceOnUse">
<stop stop-color="#EF4F34"/>
<stop offset="0.5" stop-color="#EF6D57"/>
<stop offset="1" stop-color="#F2CC46"/>
</linearGradient>
<linearGradient id="paint15_linear_1762_2920" x1="3.83894" y1="24.8026" x2="23.4131" y2="7.20911" gradientUnits="userSpaceOnUse">
<stop stop-color="#EF4F34"/>
<stop offset="0.5" stop-color="#EF6D57"/>
<stop offset="1" stop-color="#F2CC46"/>
</linearGradient>
</defs>
</svg>
