<svg width="30" height="30" viewBox="0 0 30 30" fill="none" xmlns="http://www.w3.org/2000/svg">
<path d="M14.8906 29.7812C23.1145 29.7812 29.7812 23.1145 29.7812 14.8906C29.7812 6.66676 23.1145 0 14.8906 0C6.66676 0 0 6.66676 0 14.8906C0 23.1145 6.66676 29.7812 14.8906 29.7812Z" fill="#FF0420"/>
<path d="M10.5452 18.8409C9.7714 18.8751 9.0049 18.6554 8.36778 18.216C7.80633 17.7888 7.49387 17.1102 7.53048 16.4071C7.53292 16.2045 7.55245 16.0044 7.58663 15.8042C7.68427 15.2672 7.82097 14.6227 7.99917 13.8709C8.50448 11.8228 9.8129 10.7975 11.9196 10.7975C12.4468 10.7878 12.9717 10.8878 13.4623 11.088C13.8968 11.2589 14.2703 11.5543 14.534 11.9375C14.8025 12.333 14.9367 12.8017 14.9245 13.2777C14.9197 13.4754 14.9026 13.6731 14.8684 13.8709C14.7561 14.5348 14.6218 15.1768 14.4656 15.8042C14.2044 16.8246 13.7553 17.5886 13.1132 18.0939C12.4737 18.5919 11.6169 18.8433 10.5452 18.8433V18.8409ZM10.7015 17.2322C11.0871 17.242 11.4655 17.1126 11.7633 16.8636C12.0904 16.5658 12.315 16.1704 12.4004 15.7358C12.5713 15.0353 12.7031 14.425 12.791 13.9026C12.8203 13.7439 12.835 13.5828 12.835 13.4217C12.835 12.7431 12.481 12.4062 11.7731 12.4062C11.3825 12.3964 11.0017 12.5283 10.7015 12.7748C10.3792 13.0751 10.1595 13.4705 10.0765 13.9026C9.94228 14.4006 9.80802 15.0133 9.67376 15.7358C9.64446 15.8896 9.62738 16.0483 9.62982 16.2045C9.62982 16.8905 9.98622 17.2322 10.7015 17.2322Z" fill="white"/>
<path d="M15.4402 18.7292C15.3694 18.7341 15.2986 18.7048 15.2498 18.6511C15.2132 18.59 15.201 18.5193 15.2156 18.4509L16.7584 11.1887C16.773 11.1081 16.8145 11.0373 16.8805 10.9885C16.9415 10.9397 17.0147 10.9104 17.0928 10.9104H20.0636C20.7642 10.8762 21.4575 11.0544 22.0531 11.423C22.5511 11.7501 22.8391 12.314 22.8123 12.9096C22.8123 13.1049 22.7879 13.3002 22.7464 13.4906C22.6243 14.2425 22.2191 14.9211 21.6186 15.3898C21.0596 15.7999 20.2931 16.0049 19.3167 16.0049H17.8081L17.2954 18.4509C17.2808 18.5315 17.2393 18.6022 17.1734 18.6511C17.1148 18.6999 17.0391 18.7292 16.961 18.7292H15.4402ZM19.3948 14.4622C19.6877 14.4695 19.9733 14.3792 20.2101 14.2059C20.4542 14.0277 20.6202 13.764 20.6788 13.4686C20.7008 13.3588 20.7105 13.2465 20.713 13.1342C20.7252 12.9511 20.6568 12.7705 20.5226 12.6436C20.337 12.5069 20.1051 12.4434 19.8757 12.4654H18.5355L18.1108 14.4646H19.3948V14.4622Z" fill="white"/>
</svg>
