<svg width="41" height="45" viewBox="0 0 41 45" fill="none" xmlns="http://www.w3.org/2000/svg">
<path d="M20.4402 3.56C21.4202 3.56 22.2202 2.76 22.2202 1.78C22.2202 0.8 21.4202 0 20.4402 0C19.4602 0 18.6602 0.8 18.6602 1.78C18.6602 2.76 19.4602 3.56 20.4402 3.56Z" fill="url(#paint0_linear_1762_2899)"/>
<path d="M7.24094 9.02094C8.22094 9.02094 9.02094 8.22094 9.02094 7.24094C9.02094 6.26094 8.22094 5.46094 7.24094 5.46094C6.26094 5.46094 5.46094 6.26094 5.46094 7.24094C5.46094 8.22094 6.26094 9.02094 7.24094 9.02094Z" fill="url(#paint1_linear_1762_2899)"/>
<path d="M1.78 22.2104C2.76 22.2104 3.56 21.4104 3.56 20.4304C3.56 19.4504 2.76 18.6504 1.78 18.6504C0.8 18.6504 0 19.4504 0 20.4304C0 21.4104 0.8 22.2104 1.78 22.2104Z" fill="url(#paint2_linear_1762_2899)"/>
<path d="M7.24094 35.3998C8.22094 35.3998 9.02094 34.5998 9.02094 33.6198C9.02094 32.6398 8.22094 31.8398 7.24094 31.8398C6.26094 31.8398 5.46094 32.6398 5.46094 33.6198C5.46094 34.5998 6.26094 35.3998 7.24094 35.3998Z" fill="url(#paint3_linear_1762_2899)"/>
<path d="M33.6316 35.3998C34.6116 35.3998 35.4116 34.5998 35.4116 33.6198C35.4116 32.6398 34.6116 31.8398 33.6316 31.8398C32.6516 31.8398 31.8516 32.6398 31.8516 33.6198C31.8516 34.5998 32.6516 35.3998 33.6316 35.3998Z" fill="url(#paint4_linear_1762_2899)"/>
<path d="M39.1003 22.2104C40.0803 22.2104 40.8803 21.4104 40.8803 20.4304C40.8803 19.4504 40.0803 18.6504 39.1003 18.6504C38.1203 18.6504 37.3203 19.4504 37.3203 20.4304C37.3203 21.4104 38.1203 22.2104 39.1003 22.2104Z" fill="url(#paint5_linear_1762_2899)"/>
<path d="M33.6316 9.02094C34.6116 9.02094 35.4116 8.22094 35.4116 7.24094C35.4116 6.26094 34.6116 5.46094 33.6316 5.46094C32.6516 5.46094 31.8516 6.26094 31.8516 7.24094C31.8516 8.22094 32.6516 9.02094 33.6316 9.02094Z" fill="url(#paint6_linear_1762_2899)"/>
<path d="M20.46 3.33984H20.42C20.33 3.33984 20.25 3.41984 20.25 3.50984V16.0498C20.25 16.1398 20.33 16.2198 20.42 16.2198H20.46C20.55 16.2198 20.63 16.1398 20.63 16.0498V3.50984C20.63 3.41984 20.55 3.33984 20.46 3.33984Z" fill="url(#paint7_linear_1762_2899)"/>
<path d="M8.35984 8.33961L8.32984 8.36961C8.25984 8.43961 8.25984 8.53961 8.32984 8.60961L17.1998 17.4796C17.2698 17.5496 17.3698 17.5496 17.4398 17.4796L17.4698 17.4496C17.5398 17.3796 17.5398 17.2796 17.4698 17.2096L8.59984 8.33961C8.52984 8.26961 8.42984 8.26961 8.35984 8.33961Z" fill="url(#paint8_linear_1762_2899)"/>
<path d="M3.33812 20.42V20.46C3.33812 20.55 3.41813 20.63 3.50813 20.63H16.0581C16.1481 20.63 16.2281 20.55 16.2281 20.46V20.42C16.2281 20.33 16.1481 20.25 16.0581 20.25H3.49813C3.40813 20.25 3.32812 20.33 3.32812 20.42H3.33812Z" fill="url(#paint9_linear_1762_2899)"/>
<path d="M8.32984 32.5102L8.35984 32.5402C8.42984 32.6102 8.52984 32.6102 8.59984 32.5402L17.4698 23.6702C17.5398 23.6002 17.5398 23.5002 17.4698 23.4302L17.4398 23.4002C17.3698 23.3302 17.2698 23.3302 17.1998 23.4002L8.32984 32.2702C8.25984 32.3402 8.25984 32.4402 8.32984 32.5102Z" fill="url(#paint10_linear_1762_2899)"/>
<path d="M32.5102 32.5402L32.5402 32.5102C32.6102 32.4402 32.6102 32.3402 32.5402 32.2702L23.6702 23.4002C23.6002 23.3302 23.5002 23.3302 23.4302 23.4002L23.4002 23.4302C23.3302 23.5002 23.3302 23.6002 23.4002 23.6702L32.2702 32.5402C32.3402 32.6102 32.4402 32.6102 32.5102 32.5402Z" fill="url(#paint11_linear_1762_2899)"/>
<path d="M37.5384 20.46V20.42C37.5384 20.33 37.4584 20.25 37.3684 20.25H24.8184C24.7284 20.25 24.6484 20.33 24.6484 20.42V20.46C24.6484 20.55 24.7284 20.63 24.8184 20.63H37.3684C37.4584 20.63 37.5384 20.55 37.5384 20.46Z" fill="url(#paint12_linear_1762_2899)"/>
<path d="M32.5402 8.36961L32.5102 8.33961C32.4402 8.26961 32.3402 8.26961 32.2702 8.33961L23.4002 17.2096C23.3302 17.2796 23.3302 17.3796 23.4002 17.4496L23.4302 17.4796C23.5002 17.5496 23.6002 17.5496 23.6702 17.4796L32.5402 8.60961C32.6102 8.53961 32.6102 8.43961 32.5402 8.36961Z" fill="url(#paint13_linear_1762_2899)"/>
<path d="M20.4409 35.4092C12.1809 35.4092 5.46094 28.6892 5.46094 20.4292C5.46094 12.1692 12.1809 5.44922 20.4409 5.44922C28.7009 5.44922 35.4209 12.1692 35.4209 20.4292C35.4209 28.6892 28.7009 35.4092 20.4409 35.4092ZM20.4409 6.46922C12.7409 6.46922 6.47094 12.7292 6.47094 20.4292C6.47094 28.1292 12.7409 34.3892 20.4409 34.3892C28.1409 34.3892 34.4109 28.1292 34.4109 20.4292C34.4109 12.7292 28.1409 6.46922 20.4409 6.46922Z" fill="url(#paint14_linear_1762_2899)"/>
<path d="M20.4402 38.7099C10.3602 38.7099 2.16016 30.5099 2.16016 20.4399C2.16016 10.3699 10.3602 2.16992 20.4402 2.16992C30.5202 2.16992 38.7202 10.3699 38.7202 20.4399C38.7202 30.5099 30.5202 38.7099 20.4402 38.7099ZM20.4402 3.58992C11.1402 3.58992 3.58016 11.1499 3.58016 20.4399C3.58016 29.7299 11.1402 37.2899 20.4402 37.2899C29.7402 37.2899 37.3002 29.7299 37.3002 20.4399C37.3002 11.1499 29.7302 3.58992 20.4402 3.58992Z" fill="url(#paint15_linear_1762_2899)"/>
<path d="M20.4403 22.0603C21.3403 22.0603 22.0603 21.3303 22.0603 20.4403C22.0603 19.5503 21.3303 18.8203 20.4403 18.8203C19.5503 18.8203 18.8203 19.5503 18.8203 20.4403C18.8203 21.3303 19.5503 22.0603 20.4403 22.0603Z" fill="#505050"/>
<path d="M27.28 32.8911L21.83 23.9211C21.76 23.8011 21.61 23.7411 21.47 23.7911C21.4 23.8111 21.33 23.8311 21.25 23.8511C21.06 23.9011 20.95 24.1011 21.04 24.2811L24.64 32.2811L28.65 41.1811C28.74 41.3911 28.59 41.6211 28.37 41.6211H12.51C12.28 41.6211 12.13 41.3911 12.23 41.1811L16.24 32.2811L19.84 24.2811C19.92 24.1011 19.82 23.8911 19.63 23.8511C19.56 23.8311 19.48 23.8111 19.41 23.7911C19.27 23.7511 19.12 23.8011 19.05 23.9211L13.6 32.8911L7.04 43.6811C6.91 43.8911 7.06 44.1511 7.31 44.1511H33.58C33.82 44.1511 33.97 43.8811 33.85 43.6811L27.29 32.8911H27.28Z" fill="#505050"/>
<defs>
<linearGradient id="paint0_linear_1762_2899" x1="-3.99984" y1="23.75" x2="22.8802" y2="-0.409997" gradientUnits="userSpaceOnUse">
<stop stop-color="#EF4F34"/>
<stop offset="0.5" stop-color="#EF6D57"/>
<stop offset="1" stop-color="#F2CC46"/>
</linearGradient>
<linearGradient id="paint1_linear_1762_2899" x1="-7.17906" y1="20.2109" x2="19.7009" y2="-3.94906" gradientUnits="userSpaceOnUse">
<stop stop-color="#EF4F34"/>
<stop offset="0.5" stop-color="#EF6D57"/>
<stop offset="1" stop-color="#F2CC46"/>
</linearGradient>
<linearGradient id="paint2_linear_1762_2899" x1="-3.06" y1="24.7904" x2="23.81" y2="0.630394" gradientUnits="userSpaceOnUse">
<stop stop-color="#EF4F34"/>
<stop offset="0.5" stop-color="#EF6D57"/>
<stop offset="1" stop-color="#F2CC46"/>
</linearGradient>
<linearGradient id="paint3_linear_1762_2899" x1="5.94094" y1="34.7998" x2="32.8109" y2="10.6398" gradientUnits="userSpaceOnUse">
<stop stop-color="#EF4F34"/>
<stop offset="0.5" stop-color="#EF6D57"/>
<stop offset="1" stop-color="#F2CC46"/>
</linearGradient>
<linearGradient id="paint4_linear_1762_2899" x1="17.7316" y1="47.9198" x2="44.6116" y2="23.7598" gradientUnits="userSpaceOnUse">
<stop stop-color="#EF4F34"/>
<stop offset="0.5" stop-color="#EF6D57"/>
<stop offset="1" stop-color="#F2CC46"/>
</linearGradient>
<linearGradient id="paint5_linear_1762_2899" x1="13.6103" y1="43.3404" x2="40.4903" y2="19.1804" gradientUnits="userSpaceOnUse">
<stop stop-color="#EF4F34"/>
<stop offset="0.5" stop-color="#EF6D57"/>
<stop offset="1" stop-color="#F2CC46"/>
</linearGradient>
<linearGradient id="paint6_linear_1762_2899" x1="4.61157" y1="33.3309" x2="31.4916" y2="9.17094" gradientUnits="userSpaceOnUse">
<stop stop-color="#EF4F34"/>
<stop offset="0.5" stop-color="#EF6D57"/>
<stop offset="1" stop-color="#F2CC46"/>
</linearGradient>
<linearGradient id="paint7_linear_1762_2899" x1="-0.0599557" y1="28.2098" x2="26.87" y2="3.9999" gradientUnits="userSpaceOnUse">
<stop stop-color="#EF4F34"/>
<stop offset="0.5" stop-color="#EF6D57"/>
<stop offset="1" stop-color="#F2CC46"/>
</linearGradient>
<linearGradient id="paint8_linear_1762_2899" x1="-1.87016" y1="26.1796" x2="25.0598" y2="1.96961" gradientUnits="userSpaceOnUse">
<stop stop-color="#EF4F34"/>
<stop offset="0.5" stop-color="#EF6D57"/>
<stop offset="1" stop-color="#F2CC46"/>
</linearGradient>
<linearGradient id="paint9_linear_1762_2899" x1="0.488125" y1="28.78" x2="27.4182" y2="4.58003" gradientUnits="userSpaceOnUse">
<stop stop-color="#EF4F34"/>
<stop offset="0.5" stop-color="#EF6D57"/>
<stop offset="1" stop-color="#F2CC46"/>
</linearGradient>
<linearGradient id="paint10_linear_1762_2899" x1="5.64984" y1="34.4802" x2="32.5298" y2="10.3202" gradientUnits="userSpaceOnUse">
<stop stop-color="#EF4F34"/>
<stop offset="0.5" stop-color="#EF6D57"/>
<stop offset="1" stop-color="#F2CC46"/>
</linearGradient>
<linearGradient id="paint11_linear_1762_2899" x1="12.3502" y1="42.0102" x2="39.2902" y2="17.8002" gradientUnits="userSpaceOnUse">
<stop stop-color="#EF4F34"/>
<stop offset="0.5" stop-color="#EF6D57"/>
<stop offset="1" stop-color="#F2CC46"/>
</linearGradient>
<linearGradient id="paint12_linear_1762_2899" x1="9.99844" y1="39.4001" x2="36.9285" y2="15.1901" gradientUnits="userSpaceOnUse">
<stop stop-color="#EF4F34"/>
<stop offset="0.5" stop-color="#EF6D57"/>
<stop offset="1" stop-color="#F2CC46"/>
</linearGradient>
<linearGradient id="paint13_linear_1762_2899" x1="4.89015" y1="33.6496" x2="31.7702" y2="9.4796" gradientUnits="userSpaceOnUse">
<stop stop-color="#EF4F34"/>
<stop offset="0.5" stop-color="#EF6D57"/>
<stop offset="1" stop-color="#F2CC46"/>
</linearGradient>
<linearGradient id="paint14_linear_1762_2899" x1="5.27094" y1="34.0592" x2="32.1509" y2="9.89922" gradientUnits="userSpaceOnUse">
<stop stop-color="#EF4F34"/>
<stop offset="0.5" stop-color="#EF6D57"/>
<stop offset="1" stop-color="#F2CC46"/>
</linearGradient>
<linearGradient id="paint15_linear_1762_2899" x1="5.27016" y1="34.0599" x2="32.1502" y2="9.89992" gradientUnits="userSpaceOnUse">
<stop stop-color="#EF4F34"/>
<stop offset="0.5" stop-color="#EF6D57"/>
<stop offset="1" stop-color="#F2CC46"/>
</linearGradient>
</defs>
</svg>
